<svg width="1762" height="744" viewBox="0 0 1762 744" fill="none" xmlns="http://www.w3.org/2000/svg">
<g opacity="0.2">
<path d="M655.441 1120.86C665.826 1063.87 665.496 1005.53 654.468 948.645C627.733 814.058 553.166 767.724 575.673 721.798C610.457 650.836 798.269 741.76 929.793 640.855C1026.27 566.856 1045.1 425.943 1049.45 393.315C1066.46 266.081 1014.95 204.747 1065.05 144.862C1101.65 101.017 1144.96 114.948 1217.74 59.2377C1268.41 20.4529 1298.44 -25.3326 1316.05 -58.3679" stroke="url(#paint0_linear_1674_1125)" stroke-miterlimit="10"/>
<path d="M648.176 1114.79C658.556 1057.79 658.226 999.436 647.202 942.544C620.453 807.943 545.901 761.623 568.393 715.711C603.192 644.734 791.003 735.659 922.512 634.768C1018.99 560.741 1037.82 419.828 1042.18 387.214C1059.19 259.979 1007.67 198.66 1057.78 138.761C1094.39 94.9153 1137.68 108.86 1210.48 53.1362C1261.16 14.3374 1291.18 -31.434 1308.79 -64.4693" stroke="url(#paint1_linear_1674_1125)" stroke-miterlimit="10"/>
<path d="M640.91 1108.72C651.298 1051.71 650.969 993.362 639.937 936.471C613.187 801.869 538.635 755.55 561.142 709.624C595.882 638.703 783.752 729.571 915.261 628.68C1011.72 554.667 1030.56 413.754 1034.91 381.141C1051.91 253.892 1000.42 192.573 1050.52 132.688C1087.12 88.8421 1130.45 102.787 1203.23 47.0771C1253.91 8.27824 1283.93 -37.4932 1301.54 -70.5285" stroke="url(#paint2_linear_1674_1125)" stroke-miterlimit="10"/>
<path d="M633.676 1102.62C644.046 1045.61 643.707 987.261 632.673 930.37C605.924 795.769 531.372 749.449 553.864 703.537C588.663 632.561 776.474 723.485 907.983 622.594C1004.46 548.567 1023.29 407.654 1027.65 375.04C1044.65 247.791 993.142 186.486 1043.26 126.587C1079.86 82.7415 1123.17 96.7007 1195.96 40.9766C1246.64 2.17773 1276.66 -43.5937 1294.27 -76.629" stroke="url(#paint3_linear_1674_1125)" stroke-miterlimit="10"/>
<path d="M626.395 1096.56C636.775 1039.55 636.445 981.203 625.421 924.31C598.686 789.695 524.105 743.376 546.626 697.464C581.41 626.501 769.237 717.411 900.746 616.52C997.223 542.493 1016.04 401.594 1020.41 368.967C1037.4 241.732 985.905 180.413 1036 120.527C1072.6 76.6819 1115.93 90.6271 1188.71 34.917C1239.39 -3.88189 1269.4 -49.6673 1287.02 -82.6885" stroke="url(#paint4_linear_1674_1125)" stroke-miterlimit="10"/>
<path d="M619.145 1090.47C629.517 1033.46 629.188 975.115 618.171 918.223C591.422 783.621 516.855 737.288 539.362 691.39C574.117 620.455 761.972 711.337 893.554 610.489C990.017 536.476 1008.85 395.563 1013.21 362.949C1030.21 235.7 978.698 174.395 1028.81 114.496C1065.41 70.6504 1108.73 84.6095 1181.52 28.8854C1232.2 -9.91347 1262.2 -55.6989 1279.84 -88.7342" stroke="url(#paint5_linear_1674_1125)" stroke-miterlimit="10"/>
<path d="M611.895 1084.36C622.264 1027.35 621.914 968.997 610.863 912.109C584.128 777.494 509.547 731.174 532.068 685.262C566.838 614.286 754.664 705.196 886.173 604.305C982.665 530.292 1001.48 389.393 1005.85 356.765C1022.84 229.531 971.347 168.211 1021.45 108.326C1058.05 64.4807 1101.37 78.4258 1174.15 22.7157C1224.82 -16.0972 1254.84 -61.8686 1272.46 -94.8898" stroke="url(#paint6_linear_1674_1125)" stroke-miterlimit="10"/>
<path d="M604.676 1078.35C615.064 1021.35 614.734 962.999 603.702 906.107C576.968 771.52 502.401 725.187 524.893 679.275C559.692 608.298 747.503 699.222 879.027 598.317C975.505 524.318 994.335 383.405 998.68 350.778C1015.69 223.543 964.186 162.238 1014.28 102.324C1050.89 58.4788 1094.21 72.4239 1166.98 16.6998C1217.64 -22.085 1247.66 -67.8564 1265.29 -100.906" stroke="url(#paint7_linear_1674_1125)" stroke-miterlimit="10"/>
<path d="M597.352 1072.23C607.738 1015.22 607.413 956.863 596.393 899.965C569.658 765.378 495.076 719.059 517.583 673.133C552.338 602.198 740.194 693.08 871.746 592.231C968.239 518.218 987.055 377.319 991.414 344.678C1008.41 217.457 956.905 156.124 1007 96.2385C1043.6 52.393 1086.92 66.3241 1159.7 10.614C1210.38 -28.1849 1240.4 -73.9563 1258.01 -106.992" stroke="url(#paint8_linear_1674_1125)" stroke-miterlimit="10"/>
<path d="M590.133 1066.11C600.488 1009.09 600.128 950.732 589.072 893.836C562.323 759.235 487.771 712.915 510.277 666.989C545.061 596.027 732.873 686.951 864.397 586.046C960.874 512.047 979.705 371.134 984.049 338.506C1001.06 211.271 949.541 149.952 999.654 90.053C1036.25 46.2075 1079.57 60.1385 1152.35 4.42844C1203.01 -34.3564 1233.03 -80.1277 1250.66 -113.177" stroke="url(#paint9_linear_1674_1125)" stroke-miterlimit="10"/>
<path d="M582.879 1060.08C593.252 1003.07 592.922 944.725 581.905 887.832C555.156 753.231 480.604 706.911 503.096 660.999C537.88 590.037 725.707 680.947 857.216 580.056C953.693 506.029 972.509 365.13 976.883 332.502C993.883 205.281 942.375 143.948 992.488 84.0489C1029.07 40.2174 1072.39 54.1485 1145.18 -1.57563C1195.86 -40.3745 1225.88 -86.1458 1243.49 -119.181" stroke="url(#paint10_linear_1674_1125)" stroke-miterlimit="10"/>
<path d="M575.586 1053.98C585.966 996.974 585.636 938.625 574.612 881.732C547.863 747.131 473.311 700.812 495.817 654.885C530.602 583.923 718.414 674.847 849.937 573.942C946.4 499.929 965.231 359.016 969.59 326.403C986.59 199.154 935.082 137.849 985.195 77.9493C1021.8 34.1038 1065.12 48.0489 1137.9 -7.66119C1188.57 -46.446 1218.59 -92.2174 1236.21 -125.267" stroke="url(#paint11_linear_1674_1125)" stroke-miterlimit="10"/>
<path d="M568.363 1047.86C578.729 990.858 578.399 932.511 567.39 875.617C540.64 741.016 466.088 694.696 488.58 648.784C523.35 577.864 711.249 668.788 842.671 567.869C939.149 493.842 957.965 352.943 962.338 320.315C979.323 193.081 927.83 131.761 977.943 71.8622C1014.53 28.0307 1057.86 41.9758 1130.65 -13.7484C1181.33 -52.5472 1211.33 -98.3326 1228.96 -131.354" stroke="url(#paint12_linear_1674_1125)" stroke-miterlimit="10"/>
<path d="M561.07 1041.82C571.45 984.814 571.121 926.464 560.097 869.572C533.348 734.971 458.781 688.637 481.302 642.725C516.086 571.763 703.898 662.687 835.421 561.782C931.885 487.769 950.715 346.856 955.06 314.256C972.059 187.007 920.551 125.702 970.665 65.8032C1007.27 21.9577 1050.59 35.9028 1123.37 -19.8073C1174.04 -58.5921 1204.04 -104.378 1221.68 -137.413" stroke="url(#paint13_linear_1674_1125)" stroke-miterlimit="10"/>
<path d="M553.82 1035.73C564.193 978.726 563.863 920.378 552.847 863.485C526.098 728.884 451.531 682.55 474.037 636.653C508.807 565.704 696.648 656.6 828.142 555.695C924.62 481.668 943.436 340.769 947.81 308.141C964.795 180.907 913.302 119.587 963.415 59.6882C1000 15.8568 1043.33 29.8019 1116.12 -25.9223C1166.79 -64.7352 1196.81 -110.507 1214.43 -143.528" stroke="url(#paint14_linear_1674_1125)" stroke-miterlimit="10"/>
<path d="M546.586 1029.6C556.981 972.598 556.651 914.246 545.612 857.355C518.878 722.768 444.311 676.435 466.832 630.523C501.558 559.588 689.457 650.512 820.894 549.607C917.371 475.608 936.202 334.695 940.561 302.082C957.561 174.833 906.053 113.528 956.166 53.6286C992.766 9.78306 1036.09 23.7281 1108.87 -31.982C1159.52 -70.7809 1189.54 -116.552 1207.18 -149.588" stroke="url(#paint15_linear_1674_1125)" stroke-miterlimit="10"/>
<path d="M539.277 1023.54C549.666 966.539 549.336 908.188 538.304 851.297C511.569 716.71 437.002 670.376 459.494 624.464C494.279 553.501 682.105 644.412 813.614 543.521C910.106 469.508 928.922 328.609 933.281 295.967C950.281 168.746 898.773 107.413 948.886 47.5138C985.487 3.66826 1028.79 17.6134 1101.58 -38.1108C1152.26 -76.9096 1182.28 -122.681 1199.89 -155.716" stroke="url(#paint16_linear_1674_1125)" stroke-miterlimit="10"/>
<path d="M532.023 1017.49C542.412 960.48 542.082 902.13 531.05 845.238C504.315 710.651 429.748 664.317 452.255 618.391C487.025 547.443 674.851 638.353 806.346 537.42C902.823 463.421 921.654 322.508 925.998 289.88C943.013 162.645 891.49 101.326 941.603 41.427C978.204 -2.41848 1021.52 11.5126 1094.3 -44.1975C1144.96 -82.9823 1174.98 -128.754 1192.61 -161.803" stroke="url(#paint17_linear_1674_1125)" stroke-miterlimit="10"/>
<path d="M524.816 1011.36C535.196 954.35 534.867 896.001 523.843 839.108C497.094 704.507 422.541 658.187 445.033 612.275C479.745 541.327 667.659 632.237 799.109 531.374C895.587 457.347 914.418 316.434 918.777 283.821C935.777 156.6 884.268 95.2666 934.382 35.3674C970.982 -8.47813 1014.28 5.46691 1087.08 -50.2572C1137.75 -89.0561 1167.77 -134.827 1185.38 -167.863" stroke="url(#paint18_linear_1674_1125)" stroke-miterlimit="10"/>
<path d="M517.469 1005.28C527.857 948.278 527.527 889.928 516.495 833.036C489.746 698.435 415.194 652.115 437.7 606.189C472.485 535.227 660.296 626.151 791.82 525.246C888.327 451.275 907.157 310.362 911.516 277.748C928.516 150.499 877.008 89.1944 927.121 29.2952C963.722 -14.5503 1007.05 -0.605209 1079.83 -56.3153C1130.49 -95.1001 1160.51 -140.872 1178.14 -173.921" stroke="url(#paint19_linear_1674_1125)" stroke-miterlimit="10"/>
<path d="M510.258 999.238C520.638 942.233 520.308 883.883 509.284 826.991C482.535 692.39 407.983 646.07 430.475 600.158C465.259 529.196 653.086 620.106 784.536 519.159C881.014 445.132 899.845 304.219 904.204 271.605C921.189 144.37 869.695 83.0512 919.809 23.1519C956.409 -20.6936 999.722 -6.73439 1072.52 -62.4585C1123.2 -101.257 1153.21 -147.029 1170.82 -180.064" stroke="url(#paint20_linear_1674_1125)" stroke-miterlimit="10"/>
<path d="M503.051 993.108C513.431 936.103 513.101 877.753 502.077 820.861C475.328 686.26 400.761 639.926 423.282 594.014C457.95 523.052 645.864 613.962 777.344 513.127C873.807 439.114 892.638 298.201 896.997 265.588C913.996 138.339 862.488 77.0336 912.602 17.1344C949.202 -26.7111 992.53 -12.7661 1065.31 -68.4762C1115.97 -107.261 1145.99 -153.06 1163.62 -186.082" stroke="url(#paint21_linear_1674_1125)" stroke-miterlimit="10"/>
<path d="M495.672 987.008C506.045 930.002 505.715 871.654 494.698 814.761C467.949 680.159 393.382 633.826 415.889 587.928C450.673 516.965 638.5 607.876 770.008 506.984C866.559 433.028 885.389 292.115 889.748 259.501C906.748 132.252 855.24 70.9472 905.353 11.048C941.954 -32.7976 985.267 -18.8384 1058.06 -74.5626C1108.74 -113.361 1138.75 -159.147 1156.37 -192.168" stroke="url(#paint22_linear_1674_1125)" stroke-miterlimit="10"/>
<path d="M488.465 980.99C498.856 923.991 498.531 865.645 487.506 808.757C460.757 674.156 386.19 627.822 408.711 581.91C443.481 510.934 631.293 601.858 762.831 500.967C859.294 426.954 878.124 286.041 882.483 253.427C899.483 126.178 847.99 64.8594 898.088 4.9742C934.689 -38.8713 978.017 -24.9263 1050.8 -80.6364C1101.45 -119.435 1131.48 -165.221 1149.1 -198.242" stroke="url(#paint23_linear_1674_1125)" stroke-miterlimit="10"/>
<path d="M481.273 974.85C491.662 917.845 491.332 859.494 480.3 802.602C453.565 668.015 378.998 621.682 401.49 575.77C436.159 504.779 624.072 595.689 755.552 494.882C852.044 420.869 870.875 279.956 875.219 247.329C892.234 120.094 840.726 58.7889 890.824 -1.12444C927.425 -44.97 970.738 -31.0108 1043.52 -86.749C1094.2 -125.548 1124.22 -171.319 1141.83 -204.355" stroke="url(#paint24_linear_1674_1125)" stroke-miterlimit="10"/>
<path d="M473.953 968.833C484.341 911.828 484.012 853.477 472.98 796.586C446.245 661.999 371.678 615.665 394.185 569.739C428.969 498.776 616.795 589.687 748.304 488.796C844.782 414.797 863.656 273.926 867.972 241.242C884.971 114.021 833.463 52.688 883.562 -7.19721C920.162 -51.0427 963.476 -37.1116 1036.26 -92.8217C1086.94 -131.621 1116.95 -177.392 1134.56 -210.427" stroke="url(#paint25_linear_1674_1125)" stroke-miterlimit="10"/>
<path d="M466.699 962.745C477.079 905.74 476.75 847.39 465.726 790.498C438.976 655.897 364.424 609.577 386.916 563.665C421.715 492.689 609.527 583.613 741.036 482.722C837.528 408.709 856.359 267.796 860.703 235.168C877.717 107.933 826.195 46.6142 876.308 -13.285C912.909 -57.1305 956.207 -43.1855 1029 -98.9097C1079.68 -137.709 1109.7 -183.48 1127.31 -216.515" stroke="url(#paint26_linear_1674_1125)" stroke-miterlimit="10"/>
</g>
<defs>
<linearGradient id="paint0_linear_1674_1125" x1="825.27" y1="375.987" x2="1115.4" y2="675.858" gradientUnits="userSpaceOnUse">
<stop stop-color="white"/>
<stop offset="0.71" stop-color="white" stop-opacity="0"/>
</linearGradient>
<linearGradient id="paint1_linear_1674_1125" x1="817.997" y1="369.893" x2="1108.14" y2="669.779" gradientUnits="userSpaceOnUse">
<stop stop-color="white"/>
<stop offset="0.71" stop-color="white" stop-opacity="0"/>
</linearGradient>
<linearGradient id="paint2_linear_1674_1125" x1="810.732" y1="363.82" x2="1100.87" y2="663.705" gradientUnits="userSpaceOnUse">
<stop stop-color="white"/>
<stop offset="0.71" stop-color="white" stop-opacity="0"/>
</linearGradient>
<linearGradient id="paint3_linear_1674_1125" x1="803.476" y1="357.712" x2="1093.63" y2="657.612" gradientUnits="userSpaceOnUse">
<stop stop-color="white"/>
<stop offset="0.71" stop-color="white" stop-opacity="0"/>
</linearGradient>
<linearGradient id="paint4_linear_1674_1125" x1="796.216" y1="351.659" x2="1086.36" y2="651.545" gradientUnits="userSpaceOnUse">
<stop stop-color="white"/>
<stop offset="0.71" stop-color="white" stop-opacity="0"/>
</linearGradient>
<linearGradient id="paint5_linear_1674_1125" x1="789.031" y1="345.621" x2="1079.11" y2="645.449" gradientUnits="userSpaceOnUse">
<stop stop-color="white"/>
<stop offset="0.71" stop-color="white" stop-opacity="0"/>
</linearGradient>
<linearGradient id="paint6_linear_1674_1125" x1="781.672" y1="339.444" x2="1071.84" y2="639.359" gradientUnits="userSpaceOnUse">
<stop stop-color="white"/>
<stop offset="0.71" stop-color="white" stop-opacity="0"/>
</linearGradient>
<linearGradient id="paint7_linear_1674_1125" x1="774.497" y1="333.456" x2="1064.64" y2="633.342" gradientUnits="userSpaceOnUse">
<stop stop-color="white"/>
<stop offset="0.71" stop-color="white" stop-opacity="0"/>
</linearGradient>
<linearGradient id="paint8_linear_1674_1125" x1="767.216" y1="327.37" x2="1057.31" y2="627.213" gradientUnits="userSpaceOnUse">
<stop stop-color="white"/>
<stop offset="0.71" stop-color="white" stop-opacity="0"/>
</linearGradient>
<linearGradient id="paint9_linear_1674_1125" x1="759.882" y1="321.171" x2="1050.08" y2="621.115" gradientUnits="userSpaceOnUse">
<stop stop-color="white"/>
<stop offset="0.71" stop-color="white" stop-opacity="0"/>
</linearGradient>
<linearGradient id="paint10_linear_1674_1125" x1="752.7" y1="315.181" x2="1042.84" y2="615.067" gradientUnits="userSpaceOnUse">
<stop stop-color="white"/>
<stop offset="0.71" stop-color="white" stop-opacity="0"/>
</linearGradient>
<linearGradient id="paint11_linear_1674_1125" x1="745.407" y1="309.081" x2="1035.55" y2="608.967" gradientUnits="userSpaceOnUse">
<stop stop-color="white"/>
<stop offset="0.71" stop-color="white" stop-opacity="0"/>
</linearGradient>
<linearGradient id="paint12_linear_1674_1125" x1="738.17" y1="302.98" x2="1028.31" y2="602.866" gradientUnits="userSpaceOnUse">
<stop stop-color="white"/>
<stop offset="0.71" stop-color="white" stop-opacity="0"/>
</linearGradient>
<linearGradient id="paint13_linear_1674_1125" x1="730.885" y1="296.928" x2="1021.02" y2="596.814" gradientUnits="userSpaceOnUse">
<stop stop-color="white"/>
<stop offset="0.71" stop-color="white" stop-opacity="0"/>
</linearGradient>
<linearGradient id="paint14_linear_1674_1125" x1="723.627" y1="290.82" x2="1013.78" y2="590.72" gradientUnits="userSpaceOnUse">
<stop stop-color="white"/>
<stop offset="0.71" stop-color="white" stop-opacity="0"/>
</linearGradient>
<linearGradient id="paint15_linear_1674_1125" x1="716.4" y1="284.739" x2="1006.53" y2="584.611" gradientUnits="userSpaceOnUse">
<stop stop-color="white"/>
<stop offset="0.71" stop-color="white" stop-opacity="0"/>
</linearGradient>
<linearGradient id="paint16_linear_1674_1125" x1="709.099" y1="278.646" x2="999.238" y2="578.532" gradientUnits="userSpaceOnUse">
<stop stop-color="white"/>
<stop offset="0.71" stop-color="white" stop-opacity="0"/>
</linearGradient>
<linearGradient id="paint17_linear_1674_1125" x1="701.816" y1="272.559" x2="991.984" y2="572.474" gradientUnits="userSpaceOnUse">
<stop stop-color="white"/>
<stop offset="0.71" stop-color="white" stop-opacity="0"/>
</linearGradient>
<linearGradient id="paint18_linear_1674_1125" x1="694.616" y1="266.478" x2="984.756" y2="566.364" gradientUnits="userSpaceOnUse">
<stop stop-color="white"/>
<stop offset="0.71" stop-color="white" stop-opacity="0"/>
</linearGradient>
<linearGradient id="paint19_linear_1674_1125" x1="687.334" y1="260.427" x2="977.431" y2="560.269" gradientUnits="userSpaceOnUse">
<stop stop-color="white"/>
<stop offset="0.71" stop-color="white" stop-opacity="0"/>
</linearGradient>
<linearGradient id="paint20_linear_1674_1125" x1="680.021" y1="254.284" x2="970.217" y2="554.228" gradientUnits="userSpaceOnUse">
<stop stop-color="white"/>
<stop offset="0.71" stop-color="white" stop-opacity="0"/>
</linearGradient>
<linearGradient id="paint21_linear_1674_1125" x1="672.843" y1="248.238" x2="962.983" y2="548.124" gradientUnits="userSpaceOnUse">
<stop stop-color="white"/>
<stop offset="0.71" stop-color="white" stop-opacity="0"/>
</linearGradient>
<linearGradient id="paint22_linear_1674_1125" x1="665.566" y1="242.18" x2="955.635" y2="541.993" gradientUnits="userSpaceOnUse">
<stop stop-color="white"/>
<stop offset="0.71" stop-color="white" stop-opacity="0"/>
</linearGradient>
<linearGradient id="paint23_linear_1674_1125" x1="658.301" y1="236.106" x2="948.426" y2="535.977" gradientUnits="userSpaceOnUse">
<stop stop-color="white"/>
<stop offset="0.71" stop-color="white" stop-opacity="0"/>
</linearGradient>
<linearGradient id="paint24_linear_1674_1125" x1="651.066" y1="229.979" x2="941.205" y2="529.865" gradientUnits="userSpaceOnUse">
<stop stop-color="white"/>
<stop offset="0.71" stop-color="white" stop-opacity="0"/>
</linearGradient>
<linearGradient id="paint25_linear_1674_1125" x1="643.774" y1="223.935" x2="933.914" y2="523.821" gradientUnits="userSpaceOnUse">
<stop stop-color="white"/>
<stop offset="0.71" stop-color="white" stop-opacity="0"/>
</linearGradient>
<linearGradient id="paint26_linear_1674_1125" x1="636.521" y1="217.847" x2="926.66" y2="517.733" gradientUnits="userSpaceOnUse">
<stop stop-color="white"/>
<stop offset="0.71" stop-color="white" stop-opacity="0"/>
</linearGradient>
</defs>
</svg>
