<svg width="92" height="92" viewBox="0 0 92 92" fill="none" xmlns="http://www.w3.org/2000/svg">
  <path fill-rule="evenodd" clip-rule="evenodd" d="M47.6396 7.66663C43.3699 7.66663 39.4815 9.96933 31.7048 14.5747L29.0745 16.1324C21.2978 20.7378 17.4094 23.0405 15.2745 26.8333C13.1396 30.6261 13.1396 35.2315 13.1396 44.4423V47.5576C13.1396 56.7684 13.1396 61.3738 15.2745 65.1666C17.4094 68.9594 21.2978 71.2621 29.0745 75.8675L31.7048 77.4252C39.4815 82.0306 43.3699 84.3333 47.6396 84.3333C51.9094 84.3333 55.7978 82.0306 63.5745 77.4252L66.2048 75.8675C73.9815 71.2621 77.8699 68.9594 80.0048 65.1666C82.1396 61.3738 82.1396 56.7684 82.1396 47.5576V44.4423C82.1396 35.2315 82.1396 30.6261 80.0048 26.8333C77.8699 23.0405 73.9815 20.7378 66.2048 16.1324L63.5745 14.5747C55.7978 9.96933 51.9094 7.66663 47.6396 7.66663ZM33.2646 46C33.2646 38.0609 39.7006 31.625 47.6396 31.625C55.5787 31.625 62.0146 38.0609 62.0146 46C62.0146 53.9391 55.5787 60.375 47.6396 60.375C39.7006 60.375 33.2646 53.9391 33.2646 46Z" fill="#598D91" />
</svg>