<?xml version="1.0"?>
<svg xmlns="http://www.w3.org/2000/svg" xmlns:xlink="http://www.w3.org/1999/xlink" version="1.1" xml:space="preserve">
  <defs>
    <symbol id="phone" width="100%" height="100%" viewBox="0 0 56 56" fill="none">
      <path d="M31.5001 4.66699C31.5001 4.66699 36.9448 5.16197 43.8745 12.0916C50.8041 19.0213 51.2991 24.466 51.2991 24.466" stroke="currentColor" stroke-width="2" stroke-linecap="round" />
      <path d="M33.1498 12.9165C33.1498 12.9165 35.4597 13.5765 38.9245 17.0413C42.3893 20.5061 43.0493 22.816 43.0493 22.816" stroke="currentColor" stroke-width="2" stroke-linecap="round" />
      <path d="M35.235 35.0635L34.5099 34.3748L35.235 35.0635ZM36.2977 33.9446L37.0228 34.6333L36.2977 33.9446ZM41.9366 33.1621L41.4377 34.0288L41.9366 33.1621ZM46.3944 35.728L45.8956 36.5946L46.3944 35.728ZM47.6506 43.7697L48.3756 44.4584L47.6506 43.7697ZM44.336 47.2593L43.6109 46.5707L44.336 47.2593ZM41.2446 48.9139L41.3429 49.9091L41.2446 48.9139ZM18.2358 38.4421L18.9609 37.7534L18.2358 38.4421ZM7.00674 16.2539L6.00817 16.3074L6.00818 16.3074L7.00674 16.2539ZM22.1142 19.8406L22.8393 20.5293L22.1142 19.8406ZM22.4799 13.2839L23.2964 12.7066L22.4799 13.2839ZM19.5376 9.12244L18.7211 9.69975V9.69975L19.5376 9.12244ZM12.2767 8.42016L13.0018 9.10885L12.2767 8.42016ZM8.61431 12.276L7.88926 11.5873L7.88926 11.5873L8.61431 12.276ZM25.8139 30.4638L26.539 29.7751L25.8139 30.4638ZM35.9601 35.7522L37.0228 34.6333L35.5727 33.256L34.5099 34.3748L35.9601 35.7522ZM41.4377 34.0288L45.8956 36.5946L46.8933 34.8613L42.4354 32.2954L41.4377 34.0288ZM46.9255 43.081L43.6109 46.5707L45.061 47.948L48.3756 44.4584L46.9255 43.081ZM41.1464 47.9187C37.6036 48.2684 28.6266 47.9296 18.9609 37.7534L17.5108 39.1308C27.6634 49.8196 37.2816 50.3099 41.3429 49.9091L41.1464 47.9187ZM18.9609 37.7534C9.78809 28.0962 8.2035 19.8929 8.0053 16.2003L6.00818 16.3074C6.23066 20.4526 7.99525 29.1127 17.5108 39.1308L18.9609 37.7534ZM22.17 21.2339L22.8393 20.5293L21.3892 19.1519L20.7199 19.8565L22.17 21.2339ZM23.2964 12.7066L20.3541 8.54512L18.7211 9.69975L21.6634 13.8612L23.2964 12.7066ZM11.5517 7.73148L7.88926 11.5873L9.33937 12.9647L13.0018 9.10885L11.5517 7.73148ZM21.445 20.5452C20.7199 19.8565 20.719 19.8575 20.7181 19.8585C20.7177 19.8588 20.7168 19.8598 20.7161 19.8605C20.7148 19.8619 20.7135 19.8633 20.7121 19.8648C20.7094 19.8678 20.7065 19.8709 20.7034 19.8743C20.6973 19.881 20.6906 19.8885 20.6834 19.8968C20.669 19.9134 20.6524 19.9332 20.6341 19.9562C20.5976 20.0024 20.5543 20.0617 20.5076 20.1346C20.414 20.2809 20.3076 20.4811 20.2159 20.7389C20.0303 21.2604 19.9163 21.9849 20.0544 22.9273C20.3274 24.7906 21.5749 27.4529 25.0889 31.1525L26.539 29.7751C23.158 26.2155 22.221 23.9185 22.0333 22.6373C21.941 22.0074 22.0276 21.6133 22.1001 21.4094C22.1375 21.3044 22.1746 21.2402 22.1922 21.2126C22.2011 21.1987 22.2053 21.1938 22.2024 21.1974C22.201 21.1992 22.1978 21.2032 22.1925 21.2093C22.1898 21.2123 22.1867 21.2159 22.1829 21.22C22.1811 21.222 22.1791 21.2242 22.1769 21.2265C22.1758 21.2277 22.1747 21.2289 22.1736 21.2301C22.173 21.2307 22.1721 21.2317 22.1718 21.232C22.1709 21.2329 22.17 21.2339 21.445 20.5452ZM25.0889 31.1525C28.5969 34.8457 31.1398 36.1789 32.9498 36.4729C33.8702 36.6223 34.5838 36.4992 35.0995 36.2958C35.3532 36.1958 35.5493 36.0801 35.6915 35.9792C35.7625 35.9289 35.8199 35.8823 35.8644 35.8433C35.8866 35.8238 35.9057 35.8062 35.9216 35.7908C35.9295 35.7832 35.9367 35.7761 35.9431 35.7696C35.9463 35.7664 35.9493 35.7633 35.9522 35.7604C35.9536 35.7589 35.9549 35.7575 35.9563 35.7561C35.9569 35.7555 35.9579 35.7545 35.9582 35.7541C35.9591 35.7531 35.9601 35.7522 35.235 35.0635C34.5099 34.3748 34.5109 34.3738 34.5118 34.3729C34.512 34.3726 34.5129 34.3716 34.5135 34.371C34.5147 34.3698 34.5158 34.3687 34.5169 34.3675C34.5191 34.3653 34.5212 34.3631 34.5232 34.3611C34.5271 34.3572 34.5305 34.3538 34.5335 34.3509C34.5394 34.3452 34.5434 34.3416 34.5455 34.3398C34.5496 34.3362 34.546 34.3397 34.5345 34.3479C34.5116 34.3641 34.4565 34.3995 34.3657 34.4353C34.1922 34.5037 33.8434 34.5918 33.2704 34.4987C32.0937 34.3076 29.926 33.341 26.539 29.7751L25.0889 31.1525ZM20.3541 8.54512C18.2397 5.55457 14.0611 5.08953 11.5517 7.73148L13.0018 9.10885C14.5734 7.45423 17.275 7.65443 18.7211 9.69975L20.3541 8.54512ZM8.0053 16.2003C7.94149 15.0114 8.4639 13.8864 9.33937 12.9647L7.88926 11.5873C6.74117 12.796 5.90755 14.4327 6.00817 16.3074L8.0053 16.2003ZM43.6109 46.5707C42.8776 47.3426 42.0401 47.8305 41.1464 47.9187L41.3429 49.9091C42.8543 49.7599 44.1087 48.9507 45.061 47.948L43.6109 46.5707ZM22.8393 20.5293C24.8359 18.4272 24.9938 15.1073 23.2964 12.7066L21.6634 13.8612C22.8427 15.5292 22.6898 17.7826 21.3892 19.1519L22.8393 20.5293ZM45.8956 36.5946C48.2169 37.9308 48.7015 41.2113 46.9255 43.081L48.3756 44.4584C51.0745 41.617 50.2974 36.8206 46.8933 34.8613L45.8956 36.5946ZM37.0228 34.6333C38.1663 33.4294 39.9486 33.1716 41.4377 34.0288L42.4354 32.2954C40.1652 30.9887 37.3673 31.3665 35.5727 33.256L37.0228 34.6333Z" fill="currentColor" />

    </symbol>
    <symbol id="menu" width="100%" height="100%" viewBox="0 0 25 12" fill="none">
      <rect width="25" height="2" rx="1" fill="currentColor" />
      <rect y="5" width="25" height="2" rx="1" fill="currentColor" />
      <rect y="10" width="25" height="2" rx="1" fill="currentColor" />

    </symbol>
    <symbol id="arrow-right" width="100%" height="100%" viewBox="0 0 20 20" fill="none">
      <path fill-rule="evenodd" clip-rule="evenodd" d="M11.2248 4.55806C11.4688 4.31398 11.8646 4.31398 12.1086 4.55806L17.1086 9.55806C17.3527 9.80214 17.3527 10.1979 17.1086 10.4419L12.1086 15.4419C11.8646 15.686 11.4688 15.686 11.2248 15.4419C10.9807 15.1979 10.9807 14.8021 11.2248 14.5581L15.1578 10.625H3.33337C2.9882 10.625 2.70837 10.3452 2.70837 10C2.70837 9.65482 2.9882 9.375 3.33337 9.375H15.1578L11.2248 5.44194C10.9807 5.19786 10.9807 4.80214 11.2248 4.55806Z" fill="currentColor" />

    </symbol>
    <symbol id="arrow-right-alt" width="100%" height="100%" viewBox="0 0 32 19" fill="none">
      <path fill-rule="evenodd" clip-rule="evenodd" d="M26.4833 9.93584H0V8.61106H26.4626C25.5887 8.19476 24.8301 7.67809 24.1629 7.05973C22.3987 5.42479 21.3458 3.14178 20.4255 0.361747L21.564 0C22.4707 2.73915 23.449 4.784 24.9854 6.2079C26.3522 7.47476 28.2191 8.30143 31.0311 8.61106H32V8.69484V9.86484V9.93584H31.1493C28.2707 10.2349 26.3707 11.0641 24.9849 12.3459C23.4489 13.7666 22.4707 15.8081 21.564 18.5471L20.4255 18.1853C21.3459 15.4051 22.3989 13.1251 24.1633 11.4933C24.8357 10.8714 25.6009 10.3528 26.4833 9.93584Z" fill="currentColor" />

    </symbol>
    <symbol id="arrow-left" width="100%" height="100%" viewBox="0 0 15 10" fill="none">
      <path d="M2 5L1.29289 4.29289L0.585786 5L1.29289 5.70711L2 5ZM14 6C14.5523 6 15 5.55228 15 5C15 4.44772 14.5523 4 14 4V6ZM5.29289 0.292893L1.29289 4.29289L2.70711 5.70711L6.70711 1.70711L5.29289 0.292893ZM1.29289 5.70711L5.29289 9.70711L6.70711 8.29289L2.70711 4.29289L1.29289 5.70711ZM2 6H14V4H2V6Z" fill="currentColor" />
    </symbol>
    <symbol id="arrow-left-alt" width="100%" height="100%" viewBox="0 0 32 19" fill="none">
      <path fill-rule="evenodd" clip-rule="evenodd" d="M5.51674 9.93584H32V8.61106H5.53737C6.41131 8.19476 7.16994 7.67809 7.83714 7.05973C9.60126 5.42479 10.6542 3.14178 11.5745 0.361747L10.436 0C9.52926 2.73915 8.55097 4.784 7.01463 6.2079C5.64777 7.47476 3.78091 8.30143 0.968855 8.61106H0V8.69484V9.86484V9.93584H0.850685C3.72931 10.2349 5.62931 11.0641 7.01514 12.3459C8.55114 13.7666 9.52926 15.8081 10.436 18.5471L11.5745 18.1853C10.6541 15.4051 9.60108 13.1251 7.83674 11.4933C7.16428 10.8714 6.39908 10.3528 5.51674 9.93584Z" fill="currentColor" />

    </symbol>
    <symbol id="gal-ochka" width="100%" height="100%" viewBox="0 0 12 10" fill="none">
      <path d="M6.23497 8.79946C5.9649 9.16602 5.54433 9.3913 5.0896 9.41369C4.63487 9.43632 4.19445 9.25304 3.88975 8.91464L1.15929 5.88456C0.725328 5.40328 0.763876 4.6614 1.24515 4.22744C1.72689 3.79348 2.46831 3.83226 2.90227 4.31377L4.83407 6.45771C4.8627 6.48956 4.90425 6.50664 4.94695 6.50456C4.98988 6.50249 5.02912 6.48102 5.05475 6.44686L9.02546 1.0614C9.40979 0.539728 10.1443 0.428699 10.6662 0.813259C11.1876 1.19782 11.2984 1.93232 10.9139 2.45376L6.23497 8.79946Z" fill="currentColor" />
    </symbol>
    <symbol id="to-right" width="100%" height="100%" viewBox="0 0 8 14" fill="none">
      <path d="M5.63663 7.00019L1.15148 2.51504C0.7935 2.15706 0.7935 1.57666 1.15148 1.21868C1.50946 0.8607 2.08986 0.8607 2.44784 1.21868L7.58118 6.35201C7.93916 6.70999 7.93916 7.29039 7.58118 7.64838L2.44784 12.7817C2.08986 13.1397 1.50946 13.1397 1.15148 12.7817C0.7935 12.4237 0.7935 11.8433 1.15148 11.4853L5.63663 7.00019Z" fill="currentColor" />
    </symbol>
    <symbol id="to-left" width="100%" height="100%" viewBox="0 0 8 14" fill="none">
      <path d="M2.36337 7.00019L6.84852 2.51504C7.2065 2.15706 7.2065 1.57666 6.84852 1.21868C6.49054 0.8607 5.91014 0.8607 5.55216 1.21868L0.418823 6.35201C0.0608425 6.70999 0.0608425 7.29039 0.418823 7.64838L5.55216 12.7817C5.91014 13.1397 6.49054 13.1397 6.84852 12.7817C7.2065 12.4237 7.2065 11.8433 6.84852 11.4853L2.36337 7.00019Z" fill="currentColor" />
    </symbol>
    <symbol id="play" width="100%" height="100%" viewBox="0 0 24 24" fill="none">
      <path d="M19.5761 9.35258C21.4746 10.5065 21.4746 13.4935 19.5761 14.6474L8.11276 21.6145C6.26758 22.736 4 21.2763 4 18.9671L4 5.0329C4 2.72368 6.26758 1.26402 8.11276 2.38548L19.5761 9.35258Z" fill="currentColor" />
    </symbol>
    <symbol id="cross" width="100%" height="100%" viewBox="0 0 16 16" fill="none">
      <path d="M1 15L15 1M1 1L15 15" fill="none" stroke="currentColor" stroke-width="2" stroke-linecap="round" stroke-linejoin="round" />
    </symbol>
    <symbol id="cross-circle" width="100%" height="100%" viewBox="0 0 26 26" fill="none">
      <circle cx="12.9993" cy="13.0003" r="10.8333" stroke="currentColor" stroke-width="1.5" />
      <path d="M15.7077 10.292L10.291 15.7087M10.291 10.292L15.7076 15.7086" stroke="currentColor" stroke-width="1.5" stroke-linecap="round" />

    </symbol>
    <symbol id="sale" width="100%" height="100%" viewBox="0 0 24 24" fill="none">
      <path fill-rule="evenodd" clip-rule="evenodd" d="M9.5924 3.20027C9.34888 3.4078 9.22711 3.51158 9.09706 3.59874C8.79896 3.79854 8.46417 3.93721 8.1121 4.00672C7.95851 4.03705 7.79903 4.04977 7.48008 4.07522C6.6787 4.13918 6.278 4.17115 5.94371 4.28923C5.17051 4.56233 4.56233 5.17051 4.28923 5.94371C4.17115 6.278 4.13918 6.6787 4.07522 7.48008C4.04977 7.79903 4.03705 7.95851 4.00672 8.1121C3.93721 8.46417 3.79854 8.79896 3.59874 9.09706C3.51158 9.22711 3.40781 9.34887 3.20027 9.5924C2.67883 10.2043 2.4181 10.5102 2.26522 10.8301C1.91159 11.57 1.91159 12.43 2.26522 13.1699C2.41811 13.4898 2.67883 13.7957 3.20027 14.4076C3.40778 14.6511 3.51158 14.7729 3.59874 14.9029C3.79854 15.201 3.93721 15.5358 4.00672 15.8879C4.03705 16.0415 4.04977 16.201 4.07522 16.5199C4.13918 17.3213 4.17115 17.722 4.28923 18.0563C4.56233 18.8295 5.17051 19.4377 5.94371 19.7108C6.278 19.8288 6.6787 19.8608 7.48008 19.9248C7.79903 19.9502 7.95851 19.963 8.1121 19.9933C8.46417 20.0628 8.79896 20.2015 9.09706 20.4013C9.22711 20.4884 9.34887 20.5922 9.5924 20.7997C10.2043 21.3212 10.5102 21.5819 10.8301 21.7348C11.57 22.0884 12.43 22.0884 13.1699 21.7348C13.4898 21.5819 13.7957 21.3212 14.4076 20.7997C14.6511 20.5922 14.7729 20.4884 14.9029 20.4013C15.201 20.2015 15.5358 20.0628 15.8879 19.9933C16.0415 19.963 16.201 19.9502 16.5199 19.9248C17.3213 19.8608 17.722 19.8288 18.0563 19.7108C18.8295 19.4377 19.4377 18.8295 19.7108 18.0563C19.8288 17.722 19.8608 17.3213 19.9248 16.5199C19.9502 16.201 19.963 16.0415 19.9933 15.8879C20.0628 15.5358 20.2015 15.201 20.4013 14.9029C20.4884 14.7729 20.5922 14.6511 20.7997 14.4076C21.3212 13.7957 21.5819 13.4898 21.7348 13.1699C22.0884 12.43 22.0884 11.57 21.7348 10.8301C21.5819 10.5102 21.3212 10.2043 20.7997 9.5924C20.5922 9.34887 20.4884 9.22711 20.4013 9.09706C20.2015 8.79896 20.0628 8.46417 19.9933 8.1121C19.963 7.95851 19.9502 7.79903 19.9248 7.48008C19.8608 6.6787 19.8288 6.278 19.7108 5.94371C19.4377 5.17051 18.8295 4.56233 18.0563 4.28923C17.722 4.17115 17.3213 4.13918 16.5199 4.07522C16.201 4.04977 16.0415 4.03705 15.8879 4.00672C15.5358 3.93721 15.201 3.79854 14.9029 3.59874C14.7729 3.51158 14.6511 3.40781 14.4076 3.20027C13.7957 2.67883 13.4898 2.41811 13.1699 2.26522C12.43 1.91159 11.57 1.91159 10.8301 2.26522C10.5102 2.4181 10.2043 2.67883 9.5924 3.20027ZM15.8309 8.16959C16.1487 8.48742 16.1487 9.00273 15.8309 9.32056L9.32003 15.8314C9.0022 16.1493 8.48689 16.1493 8.16906 15.8314C7.85123 15.5136 7.85123 14.9983 8.16906 14.6805L14.6799 8.16959C14.9978 7.85176 15.5131 7.85176 15.8309 8.16959ZM15.798 14.7134C15.798 15.3127 15.3122 15.7985 14.7129 15.7985C14.1135 15.7985 13.6277 15.3127 13.6277 14.7134C13.6277 14.1141 14.1135 13.6282 14.7129 13.6282C15.3122 13.6282 15.798 14.1141 15.798 14.7134ZM9.28712 10.3728C9.88643 10.3728 10.3723 9.88696 10.3723 9.28765C10.3723 8.68834 9.88643 8.2025 9.28712 8.2025C8.68781 8.2025 8.20197 8.68834 8.20197 9.28765C8.20197 9.88696 8.68781 10.3728 9.28712 10.3728Z" fill="currentColor" />


    </symbol>
    <symbol id="telegram" width="100%" height="100%" viewBox="0 0 18 18" fill="none">
      <path d="M15.9882 4.05769C16.0973 3.3529 15.4272 2.79661 14.8006 3.07175L2.31922 8.55174C1.86982 8.74904 1.9027 9.42973 2.36878 9.57815L4.94275 10.3978C5.43401 10.5543 5.96596 10.4734 6.39494 10.177L12.1981 6.16774C12.3731 6.04684 12.5638 6.29565 12.4143 6.4498L8.2371 10.7566C7.83188 11.1743 7.91231 11.8823 8.39972 12.1879L13.0766 15.1208C13.6011 15.4497 14.276 15.1192 14.3741 14.4854L15.9882 4.05769Z" fill="currentColor" />
    </symbol>
    <symbol id="whatsapp" width="100%" height="100%" viewBox="0 0 19 19" fill="none">
      <path fill-rule="evenodd" clip-rule="evenodd" d="M9.52734 18C14.2067 18 18 14.2069 18 9.52783C18 4.84878 14.2067 1.05566 9.52734 1.05566C4.84803 1.05566 1.05469 4.84878 1.05469 9.52783C1.05469 11.0473 1.45472 12.4733 2.15521 13.7064L1.05469 18L5.48157 16.9735C6.68379 17.6281 8.06213 18 9.52734 18ZM9.52734 16.6966C13.4868 16.6966 16.6965 13.487 16.6965 9.52783C16.6965 5.56864 13.4868 2.35907 9.52734 2.35907C5.56792 2.35907 2.35817 5.56864 2.35817 9.52783C2.35817 11.0565 2.83667 12.4734 3.65206 13.637L3.00992 16.0449L5.46043 15.4323C6.616 16.2297 8.01714 16.6966 9.52734 16.6966Z" fill="currentColor" />
      <path d="M7.32245 5.4506C7.11842 5.00436 6.80542 5.04386 6.48922 5.04386C5.92412 5.04386 5.04297 5.78092 5.04297 7.15265C5.04297 8.27686 5.49791 9.50748 7.03092 11.3484C8.5104 13.125 10.4543 14.044 12.0682 14.0127C13.682 13.9814 14.014 12.4692 14.014 11.9586C14.014 11.7322 13.885 11.6193 13.7962 11.5886C13.2462 11.3012 12.2319 10.7657 12.0011 10.6651C11.7703 10.5645 11.6498 10.7006 11.5749 10.7746C11.3656 10.9918 10.9507 11.6318 10.8087 11.7758C10.6667 11.9197 10.4549 11.8469 10.3667 11.7925C10.0424 11.6508 9.16314 11.2249 8.46223 10.485C7.59541 9.57005 7.54454 9.25525 7.38123 8.97504C7.25058 8.75086 7.34645 8.61332 7.39429 8.55322C7.58105 8.31856 7.83893 7.95629 7.95458 7.77626C8.07023 7.59623 7.97842 7.32289 7.92333 7.15265C7.6864 6.42049 7.48568 5.8076 7.32245 5.4506Z" fill="currentColor" />

    </symbol>
    <symbol id="map-point" width="100%" height="100%" viewBox="0 0 20 20" fill="none">
      <path fill-rule="evenodd" clip-rule="evenodd" d="M10.3951 18.9088C12.007 18.0906 18 14.6623 18 8.91877C18 4.54535 14.4183 1 10 1C5.58172 1 2 4.54535 2 8.91877C2 14.6623 7.99301 18.0906 9.60488 18.9088C9.85653 19.0365 10.1435 19.0365 10.3951 18.9088ZM10 12.3136C11.8935 12.3136 13.4286 10.7939 13.4286 8.91933C13.4286 7.04473 11.8935 5.52507 10 5.52507C8.10645 5.52507 6.57143 7.04473 6.57143 8.91933C6.57143 10.7939 8.10645 12.3136 10 12.3136Z" fill="currentColor" />
    </symbol>
    <symbol id="smartphone" width="100%" height="100%" viewBox="0 0 20 20" fill="none">
      <path d="M13.6471 0H6.35292C5.05882 0 4 1.09091 4 2.42424V17.5758C4 18.9091 5.05882 20 6.35292 20H13.6471C14.9412 20 16 18.9091 16 17.5758V2.42424C16 1.09091 14.9412 0 13.6471 0ZM10.0001 17.2121C9.52949 17.2121 9.05884 16.8485 9.05884 16.2424C9.05884 15.7576 9.41184 15.2727 10.0001 15.2727C10.4707 15.2727 10.9412 15.6364 10.9412 16.2424C10.8235 16.8485 10.4707 17.2121 10.0001 17.2121ZM11.5294 4.48483H8.58823C8.11765 4.48483 7.64715 4.1212 7.64715 3.51514C7.64715 3.0303 8 2.54546 8.58823 2.54546H11.5294C12 2.54546 12.4706 2.90908 12.4706 3.51514C12.353 3.99999 12 4.48483 11.5294 4.48483Z" fill="currentColor" />

    </symbol>
    <symbol id="email" width="100%" height="100%" viewBox="0 0 20 20" fill="none">
      <path fill-rule="evenodd" clip-rule="evenodd" d="M1.17157 3.17157C0 4.34315 0 6.22876 0 10C0 13.7712 0 15.6569 1.17157 16.8284C2.34315 18 4.22876 18 8 18H12C15.7712 18 17.6569 18 18.8284 16.8284C20 15.6569 20 13.7712 20 10C20 6.22876 20 4.34315 18.8284 3.17157C17.6569 2 15.7712 2 12 2H8C4.22876 2 2.34315 2 1.17157 3.17157ZM16.5762 5.51986C16.8413 5.83807 16.7983 6.31099 16.4801 6.57617L14.2837 8.40657C13.3973 9.14523 12.6789 9.74392 12.0448 10.1517C11.3843 10.5765 10.7411 10.8449 10 10.8449C9.25892 10.8449 8.61567 10.5765 7.95518 10.1517C7.32112 9.74392 6.60271 9.14523 5.71636 8.40658L3.51986 6.57617C3.20165 6.31099 3.15866 5.83807 3.42383 5.51986C3.68901 5.20165 4.16193 5.15866 4.48014 5.42383L6.63903 7.22291C7.57199 8.00038 8.21973 8.53842 8.76658 8.89013C9.29594 9.23059 9.65493 9.34487 10 9.34487C10.3451 9.34487 10.7041 9.23059 11.2334 8.89013C11.7803 8.53842 12.428 8.00038 13.361 7.22291L15.5199 5.42383C15.8381 5.15866 16.311 5.20165 16.5762 5.51986Z" fill="currentColor" />

    </symbol>
    <symbol id="1c" width="100%" height="100%" viewBox="0 0 24 24" fill="none">
      <path d="M5.45456 5.45459V18.5455H2.1818V9.81823H0V6.54546H2.1818V5.45459H5.45456ZM16.1454 10.9091H19.5273C18.9818 7.85459 16.3636 5.45459 13.0909 5.45459C9.49088 5.45459 6.54544 8.40003 6.54544 12C6.54544 15.527 9.3727 18.4293 12.8727 18.5455H24V15.2727H13.0909C9.98438 15.2031 8.95064 11.7846 10.6031 9.85198C12.2383 7.95322 15.3295 8.55514 16.1539 10.9328" fill="currentColor" />
    </symbol>
    <symbol id="file" width="100%" height="100%" viewBox="0 0 20 20" fill="none">
      <path fill-rule="evenodd" clip-rule="evenodd" d="M4.2898 2.40247C5.4325 1.28334 7.28509 1.28334 8.42769 2.40247L17.0796 10.8764C18.8455 12.6059 18.8455 15.4101 17.0796 17.1397C15.3137 18.8692 12.4506 18.8692 10.6847 17.1397L1.36217 8.00899C1.05064 7.7038 0.545366 7.7038 0.233728 8.00899C-0.0779076 8.31422 -0.0779076 8.8091 0.233728 9.11432L9.55625 18.245C11.9454 20.585 15.819 20.585 18.2081 18.245C20.5973 15.9049 20.5973 12.111 18.2081 9.77104L9.55625 1.29718C7.79027 -0.432392 4.92722 -0.432392 3.16135 1.29718C1.39537 3.02674 1.39537 5.83092 3.16135 7.56049L11.4534 15.682C12.5961 16.8011 14.4486 16.8011 15.5913 15.682C16.7339 14.5628 16.7339 12.7484 15.5913 11.6293L7.93699 4.13248C7.62546 3.82727 7.12018 3.82727 6.80854 4.13248C6.4969 4.43771 6.4969 4.93256 6.80854 5.23777L14.4628 12.7345C14.9822 13.2432 14.9822 14.0679 14.4628 14.5767C13.9434 15.0853 13.1013 15.0853 12.5819 14.5767L4.2898 6.4552C3.1472 5.33606 3.1472 3.5216 4.2898 2.40247Z" fill="currentColor"/>
    </symbol>

    <!--  -->
    <!--  -->
    <!--  -->
  </defs>
</svg>