<svg width="1080" height="788" viewBox="0 0 1080 788" fill="none" xmlns="http://www.w3.org/2000/svg">
<path d="M1078 975.849C1021.35 945.252 961.057 923.452 900.026 911.495C755.49 883.761 692.012 930.978 649.33 894.046C583.382 836.972 716.656 708.286 640.105 555.863C583.971 444.061 442.469 374.36 409.702 358.235C281.937 295.29 207.816 316.803 156.516 250.623C118.94 202.238 142.411 169.896 100.181 85.5988C70.7809 26.9148 29.8235 -16.5013 -0.580179 -44.3016" stroke="#E6EBEF" stroke-miterlimit="10"/>
<path d="M1071.02 982.247C1014.35 951.651 954.053 929.847 893.013 917.883C748.46 890.156 684.999 937.366 642.329 900.451C576.369 843.359 709.643 714.673 633.103 562.267C576.94 450.454 435.438 380.753 402.689 364.621C274.925 301.676 200.815 323.207 149.504 257.009C111.927 208.623 135.41 176.299 93.1688 91.9838C63.7569 33.2816 22.811 -10.1166 -7.59267 -37.9168" stroke="#E6EBEF" stroke-miterlimit="10"/>
<path d="M1064.03 988.64C1007.37 958.038 947.065 936.233 886.025 924.276C741.471 896.549 678.011 943.76 635.329 906.827C569.415 849.806 702.643 721.049 626.104 568.643C569.952 456.848 428.45 387.147 395.701 371.015C267.919 308.077 193.815 329.583 142.516 263.402C104.939 215.017 128.428 182.668 86.1981 98.3704C56.7862 39.6682 15.8403 -3.73008 -14.5634 -31.5304" stroke="#E6EBEF" stroke-miterlimit="10"/>
<path d="M1057.02 995.007C1000.35 964.418 940.051 942.623 879.011 930.667C734.458 902.94 670.998 950.151 628.327 913.236C562.367 856.143 695.642 727.457 619.102 575.05C562.939 463.237 421.438 393.535 388.688 377.403C260.907 314.465 186.815 335.989 135.504 269.79C97.9274 221.404 121.428 189.073 79.1865 104.757C49.7746 46.0548 8.82876 2.65628 -21.5749 -25.1441" stroke="#E6EBEF" stroke-miterlimit="10"/>
<path d="M1050.05 1001.41C993.387 970.816 933.088 949.013 872.048 937.048C727.483 909.304 664.017 956.539 621.352 919.599C555.404 862.525 688.667 733.821 612.127 581.415C555.964 469.602 414.474 399.919 381.712 383.769C253.942 320.849 179.839 342.355 128.539 276.174C90.9626 227.789 114.451 195.44 72.2216 111.142C42.8096 52.4402 1.84624 9.04933 -28.5399 -18.7583" stroke="#E6EBEF" stroke-miterlimit="10"/>
<path d="M1043.05 1007.77C986.384 977.182 926.086 955.379 865.047 943.408C720.493 915.682 657.015 962.898 614.361 925.977C548.435 868.939 681.676 740.203 605.194 587.752C549.042 475.959 407.54 406.259 374.79 390.127C247.007 327.19 172.915 348.713 121.603 282.516C84.0268 234.132 107.527 201.801 65.2856 117.487C35.8734 58.786 -5.0903 15.3959 -35.4881 -12.4292" stroke="#E6EBEF" stroke-miterlimit="10"/>
<path d="M1036.03 1014.17C979.358 983.586 919.054 961.798 858.013 949.859C713.449 922.114 649.983 969.35 607.318 932.409C541.352 875.342 674.615 746.637 598.075 594.229C541.93 482.408 400.441 412.724 367.679 396.574C239.91 333.653 165.807 355.159 114.507 288.978C76.9307 240.592 100.419 208.242 58.1898 123.944C28.7604 65.2487 -12.1853 21.8501 -42.5713 -5.95778" stroke="#E6EBEF" stroke-miterlimit="10"/>
<path d="M1029.12 1020.52C972.459 989.92 912.159 968.116 851.118 956.158C706.583 928.424 643.105 975.642 600.434 938.727C534.474 881.635 667.749 752.949 591.197 600.525C535.063 488.723 393.561 419.022 360.794 402.897C233.03 339.952 158.938 361.475 107.609 295.284C70.0329 246.899 93.5216 214.55 51.2743 130.26C21.8738 71.5756 -19.072 28.1774 -49.4872 0.359158" stroke="#E6EBEF" stroke-miterlimit="10"/>
<path d="M1022.07 1026.95C965.407 996.35 905.104 974.54 844.059 962.571C699.523 934.837 636.056 982.072 593.374 945.139C527.448 888.102 660.689 759.364 584.201 606.937C528.055 495.119 386.564 425.437 353.785 409.294C226.032 346.367 151.911 367.88 100.611 301.7C63.0342 253.315 86.5054 220.974 44.2755 136.678C14.8633 77.9761 -26.0828 34.5783 -56.4866 6.77828" stroke="#E6EBEF" stroke-miterlimit="10"/>
<path d="M1015.05 1033.33C958.371 1002.75 898.056 980.967 837.006 969.029C692.453 941.302 628.994 988.513 586.312 951.579C520.364 894.504 653.637 765.816 577.087 613.389C520.953 501.585 379.452 431.883 346.685 415.757C218.922 352.811 144.813 374.343 93.5022 308.143C55.9261 259.757 79.397 227.414 37.1677 143.116C7.76743 84.4302 -33.1781 41.0312 -63.593 13.2125" stroke="#E6EBEF" stroke-miterlimit="10"/>
<path d="M1008.11 1039.7C951.447 1009.11 891.149 987.303 830.111 975.332C685.557 947.605 622.097 994.816 579.426 957.901C513.478 900.827 646.741 772.123 570.201 619.717C514.038 507.904 372.548 438.221 339.786 422.071C212.034 359.143 137.913 380.657 86.6015 314.458C49.0366 266.091 72.5077 233.749 30.2665 149.434C0.854558 90.7314 -40.0913 47.3332 -70.495 19.533" stroke="#E6EBEF" stroke-miterlimit="10"/>
<path d="M1001.1 1046.12C944.434 1015.52 884.135 993.716 823.095 981.752C678.542 954.025 615.081 1001.24 572.399 964.302C506.451 907.228 639.725 778.543 563.174 626.118C507.022 514.324 365.521 444.623 332.771 428.49C204.989 365.552 130.897 387.076 79.5859 320.878C42.0095 272.493 65.4982 240.143 23.2685 155.846C-6.13202 97.1618 -47.0779 53.7635 -77.4931 25.9453" stroke="#E6EBEF" stroke-miterlimit="10"/>
<path d="M994.078 1052.46C937.41 1021.88 877.114 1000.07 816.076 988.095C671.522 960.368 608.062 1007.58 565.391 970.664C499.483 913.618 632.776 784.856 556.189 632.515C500.026 520.702 358.536 451.019 325.775 434.868C198.005 371.948 123.901 393.454 72.59 327.256C35.0251 278.888 58.5137 246.539 16.2726 162.223C-13.1393 103.521 -54.1027 60.1299 -84.4888 32.3222" stroke="#E6EBEF" stroke-miterlimit="10"/>
<path d="M987.117 1058.89C930.453 1028.29 870.154 1006.49 809.115 994.522C664.561 966.796 601.083 1014.01 558.419 977.073C492.47 919.999 625.745 791.313 549.194 638.888C493.042 527.094 351.54 457.393 318.802 441.278C191.02 378.34 116.929 399.864 65.6174 333.666C28.041 285.28 51.5297 252.931 9.30002 168.633C-20.1005 109.949 -61.0639 66.5581 -91.4615 38.7326" stroke="#E6EBEF" stroke-miterlimit="10"/>
<path d="M980.121 1065.27C923.455 1034.68 863.157 1012.88 802.119 1000.9C657.565 973.178 594.088 1020.4 551.435 983.473C485.498 926.417 618.749 797.695 542.192 645.295C486.029 533.482 344.539 463.799 311.778 447.648C184.008 384.728 109.904 406.234 58.5932 340.036C21.0283 291.668 44.5169 259.319 2.27583 175.003C-27.1537 116.308 -68.0995 72.9095 -98.4856 45.1018" stroke="#E6EBEF" stroke-miterlimit="10"/>
<path d="M973.086 1071.62C916.426 1041.01 856.125 1019.2 795.083 1007.25C650.547 979.518 587.07 1026.74 544.405 989.795C478.473 932.782 611.766 804.021 535.196 651.672C479.063 539.87 337.561 470.169 304.811 454.037C177.029 391.099 102.937 412.623 51.6261 346.424C14.0497 298.039 37.5383 265.69 -4.69137 181.392C-34.1094 122.715 -75.0553 79.3173 -105.453 51.4918" stroke="#E6EBEF" stroke-miterlimit="10"/>
<path d="M966.109 1078.06C909.448 1047.46 849.147 1025.65 788.107 1013.7C643.571 985.962 580.093 1033.18 537.422 996.265C471.474 939.19 604.737 810.487 528.197 658.081C472.052 546.261 330.561 476.578 297.783 460.435C170.03 397.507 95.9089 419.021 44.5976 352.822C7.02117 304.437 30.5038 272.113 -11.7374 187.798C-41.1493 129.095 -82.0952 85.6971 -112.499 57.8968" stroke="#E6EBEF" stroke-miterlimit="10"/>
<path d="M959.141 1084.45C902.479 1053.85 842.179 1032.04 781.138 1020.09C636.603 992.353 573.125 1039.57 530.443 1002.64C464.506 945.581 597.769 816.876 521.183 664.465C465.049 552.662 323.548 482.961 290.781 466.836C163.017 403.89 88.9076 425.421 37.5964 359.223C0.020115 310.837 23.4912 278.495 -18.7383 194.197C-48.1388 135.512 -89.0845 92.1134 -119.5 64.2949" stroke="#E6EBEF" stroke-miterlimit="10"/>
<path d="M952.109 1090.77C895.445 1060.17 835.146 1038.37 774.107 1026.41C629.554 998.679 566.093 1045.89 523.423 1008.97C457.474 951.968 590.755 823.189 514.232 670.843C458.069 559.03 316.567 489.329 283.818 473.196C156.065 410.268 81.9445 431.782 30.6332 365.583C-6.94312 317.198 16.5394 284.874 -25.7017 200.558C-55.1136 141.855 -96.0594 98.4571 -126.463 70.6567" stroke="#E6EBEF" stroke-miterlimit="10"/>
<path d="M945.113 1097.24C888.451 1066.63 828.151 1044.83 767.11 1032.87C622.556 1005.15 559.095 1052.36 516.413 1015.42C450.464 958.35 583.739 829.666 507.187 677.243C451.088 565.428 309.586 495.728 276.836 479.595C149.054 416.658 74.9615 438.182 23.6499 371.984C-13.9267 323.6 9.56207 291.251 -32.6678 206.954C-62.0685 148.271 -103.015 104.873 -133.43 77.0551" stroke="#E6EBEF" stroke-miterlimit="10"/>
<path d="M938.164 1103.61C881.5 1073.01 821.202 1051.21 760.162 1039.24C615.61 1011.52 552.15 1058.73 509.479 1021.81C443.531 964.738 576.794 836.032 500.184 683.653C444.022 571.838 302.521 502.136 269.771 486.004C142.001 423.083 67.8986 444.589 16.5876 378.39C-20.9885 330.004 2.51151 297.672 -39.7293 213.355C-69.1411 154.652 -110.087 111.253 -140.49 83.4524" stroke="#E6EBEF" stroke-miterlimit="10"/>
<path d="M931.133 1109.92C874.469 1079.32 814.17 1057.52 753.13 1045.55C608.577 1017.83 545.1 1065.05 502.435 1028.11C436.462 971.132 569.744 842.352 493.256 689.991C437.104 578.196 295.603 508.495 262.853 492.362C135.072 429.424 60.98 450.948 9.66878 384.749C-27.9076 336.364 -4.41899 304.014 -46.6486 219.717C-76.049 161.032 -117.024 117.623 -147.41 89.8154" stroke="#E6EBEF" stroke-miterlimit="10"/>
<path d="M924.105 1116.4C867.439 1085.81 807.141 1064.01 746.102 1052.04C601.547 1024.31 538.069 1071.53 495.415 1034.61C429.466 977.533 562.73 848.833 486.19 696.429C430.114 584.582 288.611 514.883 255.861 498.75C128.079 435.814 53.9862 457.337 2.6745 391.14C-34.9022 342.756 -11.402 310.425 -53.6435 226.111C-83.0557 167.41 -124.019 124.02 -154.406 96.213" stroke="#E6EBEF" stroke-miterlimit="10"/>
<path d="M917.184 1122.76C860.528 1092.16 800.234 1070.35 739.198 1058.39C594.645 1030.67 531.167 1077.88 488.502 1040.94C422.536 983.877 555.811 855.192 479.277 702.761C423.125 590.967 281.623 521.266 248.873 505.134C121.091 442.196 46.988 463.702 -4.3119 397.522C-41.8884 349.136 -18.3998 316.787 -60.6295 232.49C-90.0476 173.813 -131.005 130.398 -161.391 102.59" stroke="#E6EBEF" stroke-miterlimit="10"/>
<path d="M910.141 1129.08C853.479 1098.48 793.179 1076.67 732.138 1064.71C587.603 1036.98 524.125 1084.2 481.454 1047.28C415.452 990.298 548.734 861.518 472.275 709.168C416.13 597.348 274.628 527.647 241.861 511.521C114.097 448.576 40.0053 470.1 -11.3235 403.909C-48.8998 355.523 -25.3998 323.192 -67.6584 238.883C-97.0703 180.181 -138.016 136.782 -168.42 108.982" stroke="#E6EBEF" stroke-miterlimit="10"/>
<path d="M903.207 1135.54C846.545 1104.94 786.245 1083.13 725.204 1071.17C580.669 1043.44 517.191 1090.66 474.509 1053.72C408.56 996.65 541.823 867.947 465.283 715.54C409.149 603.738 267.7 534.015 234.869 517.894C107.116 454.967 32.9951 476.48 -18.3048 410.3C-55.8812 361.914 -32.41 329.572 -74.6397 245.275C-104.052 186.573 -144.998 143.175 -175.401 115.374" stroke="#E6EBEF" stroke-miterlimit="10"/>
<path d="M896.211 1141.92C839.547 1111.32 779.248 1089.52 718.208 1077.55C573.655 1049.82 510.195 1097.03 467.524 1060.12C401.564 1003.03 534.839 874.342 458.299 721.936C402.153 610.116 260.651 540.415 227.884 524.29C100.12 461.345 26.0106 482.876 -25.3008 416.678C-62.8772 368.292 -39.3947 335.968 -81.6359 251.653C-111.048 192.951 -151.994 149.552 -182.397 121.752" stroke="#E6EBEF" stroke-miterlimit="10"/>
</svg>
