<svg width="62" height="18" viewBox="0 0 62 18" fill="none" xmlns="http://www.w3.org/2000/svg">
<g clip-path="url(#clip0_870_49054)">
<path d="M22.1602 6.89623V4.92041C22.1602 2.29374 20.6085 0.736328 17.9824 0.736328C15.3802 0.736328 13.8761 2.24725 13.8761 4.92041V5.26908C13.8761 7.61682 14.6162 8.82555 16.4783 9.54614L17.5288 9.91806C19.3432 10.6387 19.8206 11.2198 19.8206 12.475V13.4513C19.8206 14.7065 19.1522 15.4503 18.0062 15.4503C16.8842 15.4503 16.2157 14.7065 16.2157 13.4513V11.3128H13.8284V13.2886C13.8284 15.9385 15.3324 17.4727 17.9824 17.4727C20.6323 17.4727 22.208 15.9152 22.208 13.2886V12.8469C22.208 10.4527 21.4918 9.3137 19.558 8.5931L18.6031 8.24443C16.7171 7.50059 16.2635 6.91947 16.2635 5.66425V4.7577C16.2635 3.50247 16.9081 2.75863 18.0062 2.75863C19.1044 2.75863 19.7729 3.50247 19.7729 4.7577V6.89623H22.1602ZM30.7413 0.968777H22.863V2.99108H25.6085V17.2402H27.9958V2.99108H30.7413V0.968777ZM31.7114 0.968777V17.2402H35.6982C38.1333 17.2402 39.9477 16.078 39.9477 13.2188V4.99015C39.9477 2.15427 38.1333 0.968777 35.6982 0.968777H31.7114ZM34.0987 2.99108H35.6744C36.6771 2.99108 37.5365 3.45598 37.5365 4.9669V13.2421C37.5365 14.753 36.6771 15.2179 35.6744 15.2179H34.0987V2.99108ZM43.5869 0.945532H41.1996V17.2402H43.5869V10.1273H43.9689L47.0009 17.2402H49.5553L45.9266 9.10449L49.1734 0.945532H46.6189L43.9689 8.08172H43.5869V0.945532ZM50.3853 0.968777V17.2402H52.7726V0.968777H50.3853ZM61.4925 0.968777H53.6142V2.99108H56.3597V17.2402H58.747V2.99108H61.4925V0.968777Z" fill="white"/>
<path d="M4.64897 16.8895L4.51538 17.2402H4.89953H6.27978H6.46568L6.53034 17.0705L12.5438 1.28477L12.6773 0.934082H12.2932H10.913H10.7271L10.6624 1.1038L4.64897 16.8895Z" fill="white" stroke="white" stroke-width="0.534483"/>
<path d="M0.551074 16.8895L0.41748 17.2402H0.801635H2.18188H2.36778L2.43244 17.0705L8.44588 1.28477L8.57946 0.934082H8.19531H6.81507H6.62916L6.56451 1.1038L0.551074 16.8895Z" fill="white" stroke="white" stroke-width="0.534483"/>
</g>
<defs>
<clipPath id="clip0_870_49054">
<rect width="62" height="17" fill="white" transform="translate(0 0.5)"/>
</clipPath>
</defs>
</svg>
