<?xml version="1.0" standalone="no"?>
<!DOCTYPE svg PUBLIC "-//W3C//DTD SVG 20010904//EN"
 "http://www.w3.org/TR/2001/REC-SVG-20010904/DTD/svg10.dtd">
<svg version="1.0" xmlns="http://www.w3.org/2000/svg"
 width="260.000000pt" height="260.000000pt" viewBox="0 0 260.000000 260.000000"
 preserveAspectRatio="xMidYMid meet">
<metadata>
Created by potrace 1.14, written by Peter Selinger 2001-2017
</metadata>
<g transform="translate(0.000000,260.000000) scale(0.100000,-0.100000)"
fill="#000000" stroke="none">
<path d="M1141 2590 c-573 -72 -1031 -512 -1126 -1079 -25 -149 -16 -388 19
-523 131 -500 502 -854 1008 -965 116 -25 390 -25 506 0 511 112 892 482 1013
983 31 128 38 366 14 505 -89 536 -498 955 -1038 1064 -98 19 -298 27 -396 15z
m408 -336 c333 -84 601 -341 695 -667 135 -464 -84 -954 -516 -1157 -163 -76
-350 -110 -510 -90 -226 26 -387 98 -573 254 -144 122 -281 189 -450 222 l-88
18 43 18 c177 75 494 178 507 164 12 -12 14 -97 3 -131 -7 -20 -26 -52 -42
-71 -30 -34 -30 -34 -7 -34 39 0 121 25 179 55 70 35 160 127 195 198 27 56
27 56 83 64 95 13 595 9 719 -6 123 -15 143 -10 143 34 0 30 -12 38 -95 68
-150 54 -151 54 -165 100 -53 182 -231 361 -415 421 -77 25 -178 33 -310 26
-137 -7 -186 0 -233 37 -63 48 -90 151 -58 226 21 52 111 124 220 177 223 108
444 133 675 74z m-101 -891 c-3 -32 -15 -32 -75 -6 l-38 17 40 7 c75 12 77 11
73 -18z"/>
</g>
</svg>
